<svg xmlns="http://www.w3.org/2000/svg" xmlns:xlink="http://www.w3.org/1999/xlink" width="40" zoomAndPan="magnify" viewBox="0 0 324 323.999988" height="40" preserveAspectRatio="xMidYMid meet" version="1.0"><defs><g/></defs><path fill="#ffffff" d="M 247.859375 194.257812 C 242.597656 191.171875 236.132812 191.238281 230.894531 194.347656 L 204.378906 210.144531 C 198.445312 213.683594 191.03125 213.269531 185.585938 209.019531 C 176.179688 201.671875 161.027344 189.308594 147.847656 176.125 C 134.667969 162.945312 122.304688 147.796875 114.957031 138.386719 C 110.703125 132.945312 110.289062 125.53125 113.828125 119.59375 L 129.625 93.078125 C 132.75 87.84375 132.773438 81.324219 129.691406 76.0625 L 90.785156 9.601562 C 87.011719 3.175781 79.523438 0.0117188 72.277344 1.789062 C 65.242188 3.5 56.105469 7.671875 46.527344 17.261719 C 16.535156 47.253906 0.609375 97.835938 113.386719 210.613281 C 226.164062 323.390625 276.734375 307.476562 306.738281 277.472656 C 316.339844 267.871094 320.5 258.71875 322.222656 251.671875 C 323.972656 244.4375 320.863281 237 314.449219 233.242188 C 298.429688 223.871094 263.878906 203.640625 247.859375 194.257812 Z M 247.859375 194.257812 " fill-opacity="1" fill-rule="nonzero"/><g fill="#ffffff" fill-opacity="1"><g transform="translate(252.615044, 253.93353)"><g><path d="M 3.625 0 L 1.65625 0 L 1.65625 -2.015625 L 3.625 -2.015625 Z M 3.625 0 "/></g></g></g></svg>