<svg xmlns="http://www.w3.org/2000/svg" xmlns:xlink="http://www.w3.org/1999/xlink" width="30" zoomAndPan="magnify" viewBox="0 0 237.75 323.999988" height="30" preserveAspectRatio="xMidYMid meet" version="1.0"><defs><g/><clipPath id="3f0ab7e522"><path d="M 1 0.171875 L 235 0.171875 L 235 323.828125 L 1 323.828125 Z M 1 0.171875 " clip-rule="nonzero"/></clipPath></defs><g clip-path="url(#3f0ab7e522)"><path fill="#ffffff" d="M 117.996094 -0.371094 C 116.085938 -0.371094 114.175781 -0.320312 112.269531 -0.226562 C 110.363281 -0.128906 108.457031 0.0117188 106.554688 0.199219 C 104.65625 0.390625 102.761719 0.625 100.871094 0.90625 C 98.980469 1.191406 97.101562 1.519531 95.226562 1.890625 C 93.355469 2.265625 91.492188 2.6875 89.636719 3.152344 C 87.785156 3.617188 85.945312 4.128906 84.117188 4.683594 C 82.289062 5.238281 80.476562 5.839844 78.679688 6.484375 C 76.882812 7.128906 75.101562 7.816406 73.335938 8.550781 C 71.570312 9.28125 69.824219 10.054688 68.097656 10.875 C 66.375 11.691406 64.667969 12.550781 62.984375 13.453125 C 61.300781 14.351562 59.636719 15.296875 58 16.277344 C 56.363281 17.261719 54.75 18.28125 53.160156 19.34375 C 51.574219 20.40625 50.011719 21.503906 48.476562 22.644531 C 46.945312 23.78125 45.4375 24.957031 43.960938 26.167969 C 42.484375 27.382812 41.039062 28.628906 39.625 29.910156 C 38.207031 31.195312 36.824219 32.511719 35.476562 33.863281 C 34.125 35.214844 32.808594 36.597656 31.523438 38.011719 C 30.242188 39.425781 28.996094 40.871094 27.78125 42.347656 C 26.570312 43.824219 25.394531 45.332031 24.257812 46.863281 C 23.117188 48.398438 22.019531 49.960938 20.957031 51.546875 C 19.894531 53.136719 18.875 54.75 17.890625 56.386719 C 16.90625 58.023438 15.964844 59.6875 15.066406 61.371094 C 14.164062 63.054688 13.304688 64.761719 12.488281 66.488281 C 11.667969 68.214844 10.894531 69.957031 10.164062 71.722656 C 9.429688 73.488281 8.742188 75.269531 8.097656 77.066406 C 7.453125 78.863281 6.851562 80.679688 6.296875 82.503906 C 5.742188 84.332031 5.230469 86.171875 4.765625 88.027344 C 4.300781 89.878906 3.878906 91.742188 3.503906 93.613281 C 3.128906 95.488281 2.800781 97.367188 2.519531 99.257812 C 2.238281 101.148438 2.003906 103.042969 1.8125 104.945312 C 1.625 106.84375 1.484375 108.75 1.386719 110.65625 C 1.289062 112.5625 1.242188 114.472656 1.238281 116.382812 C 1.238281 205.617188 107.703125 313.113281 112.238281 317.640625 L 117.996094 323.394531 L 123.753906 317.640625 C 128.289062 313.109375 234.753906 205.613281 234.753906 116.382812 C 234.75 114.472656 234.703125 112.5625 234.605469 110.65625 C 234.511719 108.75 234.367188 106.84375 234.179688 104.945312 C 233.988281 103.042969 233.753906 101.148438 233.472656 99.257812 C 233.191406 97.367188 232.863281 95.488281 232.488281 93.613281 C 232.113281 91.742188 231.695312 89.878906 231.226562 88.027344 C 230.761719 86.171875 230.25 84.332031 229.695312 82.503906 C 229.140625 80.679688 228.539062 78.863281 227.894531 77.066406 C 227.25 75.269531 226.5625 73.488281 225.832031 71.722656 C 225.097656 69.957031 224.324219 68.214844 223.507812 66.488281 C 222.6875 64.761719 221.828125 63.054688 220.929688 61.371094 C 220.027344 59.6875 219.085938 58.023438 218.101562 56.386719 C 217.121094 54.75 216.097656 53.136719 215.035156 51.546875 C 213.972656 49.960938 212.875 48.398438 211.734375 46.863281 C 210.597656 45.332031 209.421875 43.824219 208.210938 42.347656 C 207 40.871094 205.75 39.425781 204.46875 38.011719 C 203.183594 36.597656 201.867188 35.214844 200.515625 33.863281 C 199.167969 32.511719 197.785156 31.195312 196.367188 29.910156 C 194.953125 28.628906 193.507812 27.382812 192.03125 26.167969 C 190.554688 24.957031 189.050781 23.78125 187.515625 22.644531 C 185.980469 21.503906 184.421875 20.40625 182.832031 19.34375 C 181.242188 18.28125 179.632812 17.261719 177.992188 16.277344 C 176.355469 15.296875 174.695312 14.351562 173.007812 13.453125 C 171.324219 12.550781 169.621094 11.691406 167.894531 10.875 C 166.167969 10.054688 164.421875 9.28125 162.65625 8.550781 C 160.890625 7.816406 159.109375 7.128906 157.3125 6.484375 C 155.515625 5.839844 153.703125 5.238281 151.875 4.683594 C 150.046875 4.128906 148.207031 3.617188 146.355469 3.152344 C 144.5 2.6875 142.636719 2.265625 140.765625 1.890625 C 138.890625 1.519531 137.011719 1.191406 135.121094 0.90625 C 133.230469 0.625 131.335938 0.390625 129.4375 0.199219 C 127.535156 0.0117188 125.632812 -0.128906 123.722656 -0.226562 C 121.816406 -0.320312 119.90625 -0.371094 117.996094 -0.371094 Z M 117.996094 178.835938 C 115.949219 178.835938 113.910156 178.734375 111.875 178.535156 C 109.839844 178.332031 107.820312 178.035156 105.8125 177.632812 C 103.808594 177.234375 101.824219 176.738281 99.867188 176.144531 C 97.910156 175.550781 95.988281 174.863281 94.097656 174.082031 C 92.207031 173.296875 90.359375 172.425781 88.558594 171.460938 C 86.753906 170.496094 85 169.445312 83.300781 168.308594 C 81.601562 167.171875 79.957031 165.957031 78.378906 164.660156 C 76.796875 163.359375 75.28125 161.988281 73.835938 160.542969 C 72.390625 159.097656 71.019531 157.582031 69.722656 156.003906 C 68.421875 154.421875 67.207031 152.78125 66.070312 151.078125 C 64.933594 149.378906 63.882812 147.625 62.917969 145.824219 C 61.957031 144.019531 61.082031 142.171875 60.300781 140.28125 C 59.515625 138.394531 58.828125 136.46875 58.234375 134.511719 C 57.640625 132.554688 57.144531 130.574219 56.746094 128.566406 C 56.347656 126.5625 56.046875 124.539062 55.847656 122.503906 C 55.644531 120.46875 55.546875 118.429688 55.546875 116.382812 C 55.546875 114.339844 55.644531 112.296875 55.847656 110.261719 C 56.046875 108.226562 56.347656 106.207031 56.746094 104.199219 C 57.144531 102.195312 57.640625 100.210938 58.234375 98.253906 C 58.828125 96.296875 59.515625 94.375 60.300781 92.484375 C 61.082031 90.59375 61.957031 88.75 62.917969 86.945312 C 63.882812 85.140625 64.933594 83.386719 66.070312 81.6875 C 67.207031 79.988281 68.421875 78.347656 69.722656 76.765625 C 71.019531 75.183594 72.390625 73.671875 73.835938 72.222656 C 75.28125 70.777344 76.796875 69.40625 78.378906 68.109375 C 79.957031 66.8125 81.601562 65.59375 83.300781 64.457031 C 85 63.320312 86.753906 62.269531 88.558594 61.304688 C 90.359375 60.34375 92.207031 59.46875 94.097656 58.6875 C 95.988281 57.902344 97.910156 57.214844 99.867188 56.621094 C 101.824219 56.027344 103.808594 55.53125 105.8125 55.132812 C 107.820312 54.734375 109.839844 54.433594 111.875 54.234375 C 113.910156 54.03125 115.949219 53.933594 117.996094 53.933594 C 120.042969 53.933594 122.082031 54.03125 124.117188 54.234375 C 126.152344 54.433594 128.175781 54.734375 130.179688 55.132812 C 132.1875 55.53125 134.167969 56.027344 136.125 56.621094 C 138.082031 57.214844 140.003906 57.902344 141.894531 58.6875 C 143.785156 59.46875 145.632812 60.34375 147.4375 61.304688 C 149.238281 62.269531 150.992188 63.320312 152.691406 64.457031 C 154.394531 65.59375 156.035156 66.8125 157.613281 68.109375 C 159.195312 69.40625 160.710938 70.777344 162.15625 72.222656 C 163.601562 73.671875 164.972656 75.183594 166.273438 76.765625 C 167.570312 78.347656 168.785156 79.988281 169.921875 81.6875 C 171.058594 83.386719 172.109375 85.140625 173.074219 86.945312 C 174.039062 88.75 174.910156 90.59375 175.695312 92.484375 C 176.476562 94.375 177.164062 96.296875 177.757812 98.253906 C 178.351562 100.210938 178.847656 102.195312 179.246094 104.199219 C 179.648438 106.207031 179.945312 108.226562 180.148438 110.261719 C 180.347656 112.296875 180.449219 114.339844 180.449219 116.382812 C 180.445312 118.429688 180.34375 120.46875 180.140625 122.503906 C 179.9375 124.539062 179.636719 126.558594 179.234375 128.5625 C 178.835938 130.566406 178.335938 132.546875 177.742188 134.503906 C 177.148438 136.460938 176.457031 138.382812 175.675781 140.273438 C 174.890625 142.160156 174.015625 144.007812 173.054688 145.808594 C 172.089844 147.613281 171.039062 149.363281 169.902344 151.0625 C 168.765625 152.761719 167.546875 154.402344 166.25 155.984375 C 164.953125 157.5625 163.582031 159.078125 162.136719 160.523438 C 160.691406 161.96875 159.175781 163.339844 157.597656 164.636719 C 156.015625 165.933594 154.375 167.152344 152.675781 168.289062 C 150.976562 169.425781 149.226562 170.476562 147.421875 171.441406 C 145.617188 172.40625 143.773438 173.277344 141.882812 174.0625 C 139.996094 174.847656 138.074219 175.535156 136.117188 176.128906 C 134.160156 176.726562 132.179688 177.222656 130.175781 177.625 C 128.171875 178.023438 126.148438 178.324219 124.117188 178.527344 C 122.082031 178.730469 120.042969 178.832031 117.996094 178.835938 Z M 117.996094 178.835938 " fill-opacity="1" fill-rule="nonzero"/></g><g fill="#ffffff" fill-opacity="1"><g transform="translate(116.017749, 254.684584)"><g><path d="M 3.625 0 L 1.65625 0 L 1.65625 -2.015625 L 3.625 -2.015625 Z M 3.625 0 "/></g></g></g></svg>