<svg xmlns="http://www.w3.org/2000/svg" xmlns:xlink="http://www.w3.org/1999/xlink" width="40" zoomAndPan="magnify" viewBox="0 0 373.5 240.749997" height="40" preserveAspectRatio="xMidYMid meet" version="1.0"><defs><g/><clipPath id="50b3c18e20"><path d="M 0 0.0351562 L 373 0.0351562 L 373 239.714844 L 0 239.714844 Z M 0 0.0351562 " clip-rule="nonzero"/></clipPath></defs><g clip-path="url(#50b3c18e20)"><path fill="#ffffff" d="M 0 21.691406 L 0 226.457031 C 0 233.804688 5.964844 239.765625 13.308594 239.765625 L 359.375 239.765625 C 366.722656 239.765625 372.683594 233.804688 372.683594 226.457031 L 372.683594 21.691406 L 193.277344 131.328125 C 189.019531 133.9375 183.667969 133.9375 179.40625 131.328125 Z M 186.34375 104.375 L 15.839844 0.183594 L 356.84375 0.183594 Z M 186.34375 104.375 " fill-opacity="1" fill-rule="evenodd"/></g><g fill="#ffffff" fill-opacity="1"><g transform="translate(183.697613, 205.734876)"><g><path d="M 3.625 0 L 1.65625 0 L 1.65625 -2.015625 L 3.625 -2.015625 Z M 3.625 0 "/></g></g></g></svg>